<?xml version="1.0" encoding="UTF-8"?>
<!DOCTYPE svg PUBLIC "-//W3C//DTD SVG 1.1//EN" "http://www.w3.org/Graphics/SVG/1.1/DTD/svg11.dtd">
<!-- Creator: CorelDRAW -->
<svg xmlns="http://www.w3.org/2000/svg" xml:space="preserve" width="154.913mm" height="41.6831mm" version="1.1" style="shape-rendering:geometricPrecision; text-rendering:geometricPrecision; image-rendering:optimizeQuality; fill-rule:evenodd; clip-rule:evenodd"
viewBox="0 0 10809.98 2908.69"
 xmlns:xlink="http://www.w3.org/1999/xlink"
 xmlns:xodm="http://www.corel.com/coreldraw/odm/2003">
 <defs>
  <style type="text/css">
   <![CDATA[
    .fil0 {fill:#FEFEFE}
    .fil1 {fill:#060910}
    .fil2 {fill:#1D72F6}
   ]]>
  </style>
 </defs>
 <g id="Camada_x0020_1">
  <metadata id="CorelCorpID_0Corel-Layer"/>
  <rect class="fil0" x="-0" y="-0" width="2908.69" height="2908.69" rx="614.9" ry="614.9"/>
  <polygon class="fil1" points="954.98,2490.13 952.95,418.18 513.25,416.75 511.77,2490.7 "/>
  <path class="fil2" d="M954.98 2490.13c9.31,-34.08 3.24,-717.09 2.78,-872.75 -0.01,-5.77 -0.25,-21.37 0.31,-26.29l8.19 -26.03 500.81 -5.95c31.04,-40.19 428.46,-435.13 494.55,-504.26 31.27,-32.71 137.9,-149.21 167.06,-165.21l0.98 326.63c35.15,-20.93 150.92,-143.36 193.93,-187.11 35.24,-35.85 26.32,-36.46 26.67,-101.36l-1.23 -508.22c-45.85,-8.11 -457.74,-2.55 -540.79,-2.87 -93.14,-0.36 -73.59,-16.48 -178.2,89.7 -20.31,20.61 -122.97,125.26 -127.29,141.33l346.95 1.96c-23.16,38.23 -78.43,85.06 -109.3,118.23 -37.05,39.8 -71.48,75.01 -109.89,113.53l-444.19 449.26c-14.95,15.67 -202.25,209.02 -227.33,224 -3.36,-131.75 9.2,-1104.94 -6.06,-1136.56l2.04 2071.95z"/>
  <path class="fil1" d="M1467.08 1559.11l-500.81 5.95c23.82,28.32 47.04,46.8 72.63,72.94 25.37,25.91 43.72,48.99 70.12,74.4 140.46,135.17 313.04,322.01 444.34,442.62 25.69,23.59 45.46,47.94 71.25,73.31l222.89 223.89c39.27,41.18 28.25,40.33 105.26,39.36 108.53,-1.37 373.69,6.49 444.16,-2.21 -77.9,-71.11 -154.97,-153.66 -231.91,-229.91l-231.12 -235.27c-80.15,-76.54 -156.14,-153.31 -234.53,-232.01l-232.29 -233.08z"/>
  <path class="fil0" d="M5577.59 1965l222.36 1.3 1.53 -638.43c61.43,62.68 248.8,308.56 295.46,370.79 47.35,63.17 96.54,122.95 146.4,185.58 89.54,112.45 33.2,79.19 257.08,82.47l3.48 -1027.01 -224.38 0.65 -1.65 636.77c-26.43,-21.46 -207.24,-263.59 -247.35,-313.9 -40.63,-50.97 -84.15,-108.95 -122.73,-160.87l-128.87 -160.33 -200.53 -1.37 -0.8 1024.35z"/>
  <path class="fil0" d="M3303.1 1964.27l221.49 2.05 1.04 -818.6c100.01,0.97 201.63,0.58 301.66,-0.08 103.3,-0.68 176.44,26.01 188.33,124.07 28.33,233.84 -275.1,154.59 -434.02,175.44l187.98 246.54c22.43,28.38 44.07,56.97 67.17,86.7l131.19 168.47c16.57,17.32 18.21,17.72 52.98,18.22l235.14 -0.51 -192.55 -250.71c-22.13,-27.57 -50.38,-54.46 -65.49,-87.42 280,-94.6 293.09,-441.3 137.09,-591.65 -88.41,-85.21 -208.11,-96.13 -364.52,-96.81 -123.83,-0.54 -355.11,-12.85 -466.85,2.53l-0.64 1021.76z"/>
  <path class="fil0" d="M8721.55 1776.57l-0.61 190.23c89.61,14.14 285.08,2.73 386.3,2.77 113.6,0.03 263.36,14.95 358.56,-31.21 173.01,-83.87 230.38,-343.76 45.39,-503.82 -82.36,-71.27 -196.42,-65.46 -322.97,-65.5 -143.28,-0.03 -283.24,29.41 -302.15,-89.49 -25.41,-159.9 175.1,-128.9 261.66,-128.56 89.56,0.35 319.63,11.15 393.44,-3.64l-0.31 -203.09c-69.22,-14.58 -299.56,-4.07 -385.03,-4.23 -128.19,-0.24 -240.63,-14.19 -338.75,49.48 -178.16,115.61 -215.69,378.94 -29.57,521.14 198.43,151.61 623.1,-47.55 616.64,165.49 -5.46,179.94 -401.9,59.89 -682.59,100.42z"/>
  <path class="fil0" d="M7756.81 1965.16l789.07 1.31 2.28 -193.44 -568.38 -0.21 -1.54 -218.28 481.71 -0.54 2.12 -197.7 -482.17 0.24 -1.03 -202.59c63.01,-21.03 458.57,0.06 566.09,-7.17l2.97 -206.15 -790.38 -0.22 -0.75 1024.76z"/>
  <path class="fil0" d="M6698.81 1966.87l230.87 -0.39 2.89 -495.08 136 154.4c21.62,27.27 48.53,57.07 71.4,82.76l213.24 247.92c32.64,21.76 235.85,9.54 295.77,9.96l-217.33 -257.83c-11.25,-14.01 -11.71,-18.56 -24.62,-32.46l-202.78 -225.55 266.3 -317.29c18.96,-24.44 36.36,-41.35 55.57,-66.06 22.68,-29.17 96.12,-101.26 107.16,-127.04 -46.03,-1.4 -258.99,-6.99 -286.12,5.23 -28.27,12.74 -220.55,256.19 -276.96,313.95l-137.2 154.47 -0.45 -474.12 -232.57 0.52 -1.15 1026.59z"/>
  <path class="fil0" d="M9732.65 1965.6l230.45 1 299.16 -720.11 306.03 718.06 241.68 1.52c-10.06,-55.96 -79.23,-198.09 -104.9,-259.32 -98.78,-235.58 -243.47,-549.56 -325.21,-766.45l-219.89 0.18c-12.13,14.18 -421.25,987.26 -427.33,1025.11z"/>
  <path class="fil0" d="M4366.49 1964.7l231.25 1.58 300.84 -720.93 19.85 36.47c88.26,199.62 203.31,519.53 285.55,684.48l236.09 -0.01c-7.31,-45.44 -178.37,-432.52 -209.8,-510.12 -69.03,-170.41 -153.05,-342.78 -214.19,-514.79l-224.65 -0.99 -424.93 1024.3z"/>
 </g>
</svg>
