<?xml version="1.0" encoding="UTF-8"?>
<!DOCTYPE svg PUBLIC "-//W3C//DTD SVG 1.1//EN" "http://www.w3.org/Graphics/SVG/1.1/DTD/svg11.dtd">
<!-- Creator: CorelDRAW -->
<svg xmlns="http://www.w3.org/2000/svg" xml:space="preserve" width="154.913mm" height="41.6831mm" version="1.1" style="shape-rendering:geometricPrecision; text-rendering:geometricPrecision; image-rendering:optimizeQuality; fill-rule:evenodd; clip-rule:evenodd"
viewBox="0 0 13958 3755.75"
 xmlns:xlink="http://www.w3.org/1999/xlink"
 xmlns:xodm="http://www.corel.com/coreldraw/odm/2003">
 <defs>
  <style type="text/css">
   <![CDATA[
    .fil1 {fill:#FEFEFE}
    .fil0 {fill:#060910}
    .fil3 {fill:#141D29}
    .fil2 {fill:#1D72F6}
   ]]>
  </style>
 </defs>
 <g id="Camada_x0020_1">
  <metadata id="CorelCorpID_0Corel-Layer"/>
  <g id="_1923215084256">
   <rect class="fil0" x="-0" y="-0" width="3755.75" height="3755.75" rx="793.97" ry="793.97"/>
   <polygon class="fil1" points="1233.09,3215.29 1230.46,539.96 662.71,538.11 660.81,3216.03 "/>
   <path class="fil2" d="M1233.09 3215.29c12.02,-44.01 4.19,-925.92 3.59,-1126.9 -0.02,-7.45 -0.32,-27.59 0.41,-33.94l10.58 -33.61 646.66 -7.69c40.08,-51.89 553.24,-561.85 638.57,-651.11 40.37,-42.23 178.06,-192.67 215.71,-213.32l1.27 421.75c45.38,-27.03 194.87,-185.11 250.4,-241.6 45.5,-46.29 33.99,-47.08 34.44,-130.87l-1.59 -656.23c-59.21,-10.47 -591.05,-3.3 -698.28,-3.7 -120.27,-0.46 -95.02,-21.27 -230.09,115.83 -26.22,26.62 -158.78,161.73 -164.36,182.49l447.99 2.53c-29.91,49.36 -101.27,109.83 -141.13,152.66 -47.84,51.39 -92.3,96.85 -141.89,146.59l-573.55 580.1c-19.3,20.23 -261.14,269.88 -293.53,289.23 -4.33,-170.12 11.88,-1426.72 -7.82,-1467.54l2.63 2675.33z"/>
   <path class="fil1" d="M1894.31 2013.15l-646.66 7.69c30.76,36.56 60.74,60.42 93.78,94.18 32.75,33.46 56.46,63.26 90.54,96.07 181.36,174.54 404.2,415.78 573.74,571.52 33.17,30.46 58.69,61.9 91.99,94.65l287.81 289.09c50.71,53.18 36.48,52.08 135.92,50.83 140.14,-1.77 482.52,8.38 573.5,-2.85 -100.58,-91.81 -200.1,-198.41 -299.45,-296.86l-298.42 -303.79c-103.49,-98.82 -201.61,-197.96 -302.83,-299.57l-299.93 -300.96z"/>
   <path class="fil3" d="M7201.86 2537.23l287.11 1.68 1.97 -824.36c79.32,80.94 321.26,398.42 381.5,478.77 61.14,81.56 124.65,158.76 189.03,239.63 115.62,145.19 42.87,102.25 331.95,106.49l4.5 -1326.09 -289.72 0.84 -2.13 822.2c-34.12,-27.71 -267.6,-340.35 -319.38,-405.32 -52.46,-65.81 -108.65,-140.68 -158.47,-207.71l-166.4 -207.02 -258.93 -1.77 -1.04 1322.66z"/>
   <path class="fil3" d="M4265.01 2536.29l285.99 2.65 1.34 -1056.99c129.13,1.25 260.35,0.75 389.51,-0.1 133.38,-0.87 227.82,33.59 243.17,160.2 36.58,301.93 -355.21,199.61 -560.42,226.54l242.73 318.34c28.97,36.64 56.91,73.56 86.73,111.94l169.39 217.53c21.4,22.36 23.52,22.89 68.41,23.53l303.62 -0.66 -248.62 -323.72c-28.57,-35.6 -65.05,-70.32 -84.56,-112.88 361.55,-122.14 378.44,-569.82 177.01,-763.94 -114.16,-110.02 -268.71,-124.13 -470.67,-125.01 -159.9,-0.69 -458.52,-16.59 -602.8,3.27l-0.83 1319.31z"/>
   <path class="fil3" d="M11261.39 2293.93l-0.79 245.63c115.7,18.25 368.1,3.52 498.8,3.58 146.69,0.05 340.06,19.3 462.97,-40.29 223.39,-108.29 297.46,-443.87 58.61,-650.54 -106.35,-92.03 -253.62,-84.53 -417.02,-84.57 -185.01,-0.05 -365.73,37.98 -390.13,-115.56 -32.82,-206.47 226.09,-166.44 337.86,-166 115.64,0.45 412.71,14.4 508.02,-4.69l-0.41 -262.23c-89.38,-18.83 -386.8,-5.25 -497.16,-5.46 -165.53,-0.32 -310.71,-18.33 -437.4,63.89 -230.04,149.28 -278.5,489.29 -38.18,672.9 256.22,195.76 804.55,-61.4 796.21,213.69 -7.05,232.35 -518.95,77.33 -881.37,129.67z"/>
   <path class="fil3" d="M10015.71 2537.44l1018.86 1.69 2.95 -249.77 -733.9 -0.27 -1.99 -281.84 621.99 -0.7 2.74 -255.28 -622.58 0.31 -1.32 -261.59c81.36,-27.15 592.12,0.08 730.95,-9.26l3.84 -266.19 -1020.55 -0.28 -0.96 1323.18z"/>
   <path class="fil3" d="M8649.6 2539.65l298.1 -0.5 3.73 -639.25 175.61 199.36c27.91,35.21 62.67,73.69 92.19,106.86l275.34 320.12c42.14,28.09 304.54,12.32 381.9,12.87l-280.62 -332.91c-14.52,-18.09 -15.12,-23.97 -31.79,-41.91l-261.83 -291.23 343.85 -409.69c24.48,-31.55 46.94,-53.39 71.75,-85.3 29.28,-37.66 124.11,-130.75 138.36,-164.03 -59.43,-1.81 -334.42,-9.03 -369.45,6.76 -36.5,16.44 -284.78,330.8 -357.62,405.38l-177.16 199.45 -0.59 -612.19 -300.29 0.67 -1.49 1325.55z"/>
   <path class="fil3" d="M12566.95 2538.01l297.56 1.3 386.28 -929.81 395.15 927.17 312.06 1.96c-12.98,-72.25 -102.3,-255.77 -135.44,-334.84 -127.54,-304.19 -314.38,-709.6 -419.91,-989.65l-283.92 0.23c-15.67,18.31 -543.92,1274.76 -551.78,1323.63z"/>
   <path class="fil3" d="M5638.07 2536.84l298.6 2.05 388.45 -930.88 25.63 47.09c113.96,257.75 262.52,670.82 368.71,883.81l304.84 -0.01c-9.43,-58.67 -230.31,-558.47 -270.9,-658.68 -89.13,-220.03 -197.62,-442.6 -276.57,-664.7l-290.08 -1.28 -548.68 1322.6z"/>
  </g>
 </g>
</svg>
